G04 EasyPC Gerber Version 21.0.3 Build 4286 *
%FSLAX35Y35*%
%MOIN*%
%ADD98R,0.03756X0.04937*%
%ADD100R,0.04937X0.07890*%
%ADD104R,0.05016X0.08165*%
%ADD99R,0.05528X0.07693*%
%ADD103R,0.08480X0.09465*%
%ADD73R,0.05461X0.05461*%
%ADD76R,0.07000X0.07000*%
%ADD77C,0.05449*%
%ADD74C,0.05461*%
%ADD96O,0.12000X0.07000*%
%ADD101R,0.06315X0.02575*%
%ADD97R,0.05134X0.03362*%
%ADD82C,0.07000*%
%ADD105R,0.08087X0.05134*%
%ADD102R,0.06118X0.05724*%
X0Y0D02*
D02*
D73*
X39000Y50250D03*
X50382Y693805D03*
D02*
D74*
X39000Y90250D03*
X49000Y50250D03*
Y90250D03*
X50382Y724805D03*
X59000Y50250D03*
Y90250D03*
X61382Y693805D03*
Y724805D03*
X69000Y50250D03*
Y90250D03*
X72382Y693805D03*
Y724805D03*
X79000Y50250D03*
Y90250D03*
X83382Y693805D03*
Y724805D03*
X89000Y50250D03*
Y90250D03*
X94382Y693805D03*
Y724805D03*
X99000Y50250D03*
Y90250D03*
X105382Y693805D03*
Y724805D03*
X109000Y50250D03*
Y90250D03*
X116382Y693805D03*
Y724805D03*
X119000Y50250D03*
Y90250D03*
X127382Y693805D03*
Y724805D03*
X129000Y50250D03*
Y90250D03*
X139000Y50250D03*
Y90250D03*
X149000Y50250D03*
Y90250D03*
X159000Y50250D03*
Y90250D03*
X169000Y50250D03*
Y90250D03*
D02*
D76*
X16500Y24000D03*
Y34000D03*
Y44000D03*
Y54000D03*
X22750Y744000D03*
X32750D03*
X41500Y36500D03*
X42750Y744000D03*
X51500Y36500D03*
X52750Y744000D03*
X61500Y36500D03*
X71500D03*
D02*
D77*
X109394Y27750D03*
X128606D03*
D02*
D82*
X69483Y146721D03*
Y544290D03*
X69483Y156143D03*
Y553712D03*
X69601Y230579D03*
Y345540D03*
Y429398D03*
Y629004D03*
X69601Y240001D03*
Y354962D03*
Y438820D03*
Y638426D03*
X73861Y138378D03*
Y535947D03*
X73862Y164485D03*
Y562054D03*
X73979Y222236D03*
Y337197D03*
Y421055D03*
Y620661D03*
X73980Y248344D03*
Y363304D03*
Y447163D03*
Y646769D03*
X81615Y133026D03*
Y530594D03*
X81616Y169837D03*
Y567406D03*
X81733Y216884D03*
Y331844D03*
Y415703D03*
Y615309D03*
X81734Y253696D03*
Y368656D03*
Y452515D03*
Y652121D03*
X90968Y131889D03*
Y529458D03*
X90969Y170973D03*
Y568542D03*
X91086Y215748D03*
Y330708D03*
Y414567D03*
Y614173D03*
X91087Y254831D03*
Y369792D03*
Y453650D03*
Y653256D03*
X99778Y135230D03*
Y532799D03*
X99779Y167631D03*
Y565200D03*
X99896Y219088D03*
Y334049D03*
Y417907D03*
Y617513D03*
X99897Y251490D03*
Y366450D03*
Y450309D03*
Y649915D03*
X106026Y142282D03*
Y539851D03*
X106026Y160579D03*
Y558148D03*
X106144Y226140D03*
Y341101D03*
Y424959D03*
Y624565D03*
X106144Y244437D03*
Y359398D03*
Y443256D03*
Y642863D03*
X108281Y151431D03*
Y549000D03*
X108399Y235289D03*
Y350250D03*
Y434108D03*
Y633715D03*
D02*
D96*
X149000Y685250D03*
Y695250D03*
Y705250D03*
Y715250D03*
Y725250D03*
D02*
D97*
X138419Y131510D03*
Y138990D03*
Y210535D03*
Y218016D03*
Y329010D03*
Y336490D03*
Y409285D03*
Y416766D03*
Y529285D03*
Y536766D03*
Y609010D03*
Y616490D03*
X147081Y135250D03*
Y214276D03*
Y332750D03*
Y413026D03*
Y533026D03*
Y612750D03*
D02*
D98*
X139010Y166224D03*
Y246500D03*
Y364974D03*
Y445250D03*
Y565250D03*
Y644974D03*
X142750Y156776D03*
Y237051D03*
Y355526D03*
Y435801D03*
Y555801D03*
Y635526D03*
X146490Y166224D03*
Y246500D03*
Y364974D03*
Y445250D03*
Y565250D03*
Y644974D03*
D02*
D99*
X135594Y454000D03*
X136844Y148026D03*
Y175526D03*
Y228026D03*
Y255526D03*
Y346776D03*
Y374276D03*
Y426776D03*
Y546776D03*
Y574276D03*
Y626500D03*
Y654000D03*
X147406Y454000D03*
X148656Y148026D03*
Y175526D03*
Y228026D03*
Y255526D03*
Y346776D03*
Y374276D03*
Y426776D03*
Y546776D03*
Y574276D03*
Y626500D03*
Y654000D03*
D02*
D100*
X136844Y120526D03*
Y200526D03*
Y319276D03*
Y399000D03*
Y519276D03*
Y599000D03*
X148656Y120526D03*
Y200526D03*
Y319276D03*
Y399000D03*
Y519276D03*
Y599000D03*
D02*
D101*
X169439Y729738D03*
Y732297D03*
Y734856D03*
Y737415D03*
Y739974D03*
D02*
D102*
X167864Y725014D03*
Y744699D03*
D02*
D103*
X179675Y726293D03*
Y743419D03*
D02*
D104*
X149738Y29000D03*
Y41500D03*
X160762Y29000D03*
Y41500D03*
D02*
D105*
X29000Y35594D03*
Y47406D03*
X0Y0D02*
M02*
