G04 EasyPC Gerber Version 21.0.3 Build 4286 *
%FSLAX35Y35*%
%MOIN*%
%ADD88R,0.02756X0.03937*%
%ADD90R,0.03937X0.06890*%
%ADD94R,0.04016X0.07165*%
%ADD89R,0.04528X0.06693*%
%ADD93R,0.07480X0.08465*%
%ADD18R,0.04461X0.04461*%
%ADD71R,0.06000X0.06000*%
%ADD72C,0.01500*%
%ADD20C,0.04449*%
%ADD19C,0.04461*%
%ADD29C,0.04800*%
%ADD28C,0.05000*%
%ADD27C,0.05600*%
%ADD25C,0.06000*%
%ADD86O,0.11000X0.06000*%
%ADD91R,0.05315X0.01575*%
%ADD87R,0.04134X0.02362*%
%ADD95R,0.07087X0.04134*%
%ADD92R,0.05118X0.04724*%
X0Y0D02*
D02*
D18*
X39000Y50250D03*
X50382Y693805D03*
D02*
D19*
X39000Y90250D03*
X49000Y50250D03*
Y90250D03*
X50382Y724805D03*
X59000Y50250D03*
Y90250D03*
X61382Y693805D03*
Y724805D03*
X69000Y50250D03*
Y90250D03*
X72382Y693805D03*
Y724805D03*
X79000Y50250D03*
Y90250D03*
X83382Y693805D03*
Y724805D03*
X89000Y50250D03*
Y90250D03*
X94382Y693805D03*
Y724805D03*
X99000Y50250D03*
Y90250D03*
X105382Y693805D03*
Y724805D03*
X109000Y50250D03*
Y90250D03*
X116382Y693805D03*
Y724805D03*
X119000Y50250D03*
Y90250D03*
X127382Y693805D03*
Y724805D03*
X129000Y50250D03*
Y90250D03*
X139000Y50250D03*
Y90250D03*
X149000Y50250D03*
Y90250D03*
X159000Y50250D03*
Y90250D03*
X169000Y50250D03*
Y90250D03*
D02*
D71*
X16500Y24000D03*
Y34000D03*
Y44000D03*
Y54000D03*
X22750Y744000D03*
X32750D03*
X41500Y36500D03*
X42750Y744000D03*
X51500Y36500D03*
X52750Y744000D03*
X61500Y36500D03*
X71500D03*
D02*
D20*
X109394Y27750D03*
X128606D03*
D02*
D25*
X69483Y146721D03*
Y544290D03*
X69483Y156143D03*
Y553712D03*
X69601Y230579D03*
Y345540D03*
Y429398D03*
Y629004D03*
X69601Y240001D03*
Y354962D03*
Y438820D03*
Y638426D03*
X73861Y138378D03*
Y535947D03*
X73862Y164485D03*
Y562054D03*
X73979Y222236D03*
Y337197D03*
Y421055D03*
Y620661D03*
X73980Y248344D03*
Y363304D03*
Y447163D03*
Y646769D03*
X81615Y133026D03*
Y530594D03*
X81616Y169837D03*
Y567406D03*
X81733Y216884D03*
Y331844D03*
Y415703D03*
Y615309D03*
X81734Y253696D03*
Y368656D03*
Y452515D03*
Y652121D03*
X90968Y131889D03*
Y529458D03*
X90969Y170973D03*
Y568542D03*
X91086Y215748D03*
Y330708D03*
Y414567D03*
Y614173D03*
X91087Y254831D03*
Y369792D03*
Y453650D03*
Y653256D03*
X99778Y135230D03*
Y532799D03*
X99779Y167631D03*
Y565200D03*
X99896Y219088D03*
Y334049D03*
Y417907D03*
Y617513D03*
X99897Y251490D03*
Y366450D03*
Y450309D03*
Y649915D03*
X106026Y142282D03*
Y539851D03*
X106026Y160579D03*
Y558148D03*
X106144Y226140D03*
Y341101D03*
Y424959D03*
Y624565D03*
X106144Y244437D03*
Y359398D03*
Y443256D03*
Y642863D03*
X108281Y151431D03*
Y549000D03*
X108399Y235289D03*
Y350250D03*
Y434108D03*
Y633715D03*
D02*
D27*
X94000Y746500D03*
X101500Y36500D03*
X107750Y135250D03*
X136500Y192750D03*
Y389079D03*
X136844Y306500D03*
Y599000D03*
X139010Y166500D03*
Y246500D03*
Y365250D03*
Y445250D03*
Y565250D03*
Y644974D03*
X141500Y512750D03*
X142750Y126776D03*
Y525526D03*
X144000Y206776D03*
Y325526D03*
Y405526D03*
Y605250D03*
X152750Y747750D03*
X155250Y166500D03*
Y246500D03*
X159000Y365250D03*
Y445250D03*
Y565250D03*
Y644974D03*
X170250Y20250D03*
X174000Y695250D03*
Y715250D03*
D02*
D28*
X94000Y746500D02*
Y725187D01*
X94382Y724805*
X101500Y36500D02*
Y42750D01*
X109000Y50250*
X107750Y135250D02*
Y109404D01*
X111904Y105250*
X131500*
X136500Y110250*
Y120250*
X136844Y120526*
X109000Y50250D02*
Y62750D01*
X99000Y72750*
Y90250*
X136500Y389079D02*
Y399000D01*
X136844*
Y200526D02*
Y196500D01*
X136500*
Y192750*
X136844Y319276D02*
Y306500D01*
Y599000D02*
X138419Y131510*
Y131106D01*
X142750Y126776*
X138419Y210535D02*
X140240D01*
X144000Y206776*
X138419Y329010D02*
X140516D01*
X144000Y325526*
X138419Y409285D02*
X140240D01*
X144000Y405526*
X138419Y529285D02*
X138990D01*
X142750Y525526*
X138419Y609010D02*
X140240D01*
X144000Y605250*
X141500Y512750D02*
Y510250D01*
X139732*
X136500Y513482*
Y519000*
X136844Y519276*
X148656Y120526D02*
X151500D01*
Y133675*
X149925Y135250*
X147081*
X148656Y200526D02*
X154000D01*
Y212701*
X152425Y214276*
X147081*
X148656Y319276D02*
X152750D01*
Y331175*
X151175Y332750*
X147081*
X148656Y399000D02*
X152750D01*
Y411451*
X151175Y413026*
X147081*
X148656Y519276D02*
X150250D01*
Y531451*
X148675Y533026*
X147081*
X148656Y599000D02*
X151500D01*
Y611175*
X149925Y612750*
X147081*
X149738Y29000D02*
X129856D01*
X128606Y27750*
X149738Y41500D02*
X127750D01*
X119000Y50250*
X155250Y166500D02*
X177750D01*
X155250Y246500D02*
X177750D01*
X159000Y365250D02*
X177750D01*
X159000Y445250D02*
X177750D01*
X159000Y565250D02*
X177750D01*
X159000Y644974D02*
X177750D01*
X160762Y29000D02*
X177750D01*
X160762Y41500D02*
X177750D01*
X174000Y695250D02*
Y670250D01*
X177750*
Y644974*
X174000Y715250D02*
Y695250D01*
X177750Y29000D02*
Y27750D01*
X170250Y20250*
X177750Y29000D02*
Y41500D01*
Y166500*
Y246500*
Y365250*
Y445250*
Y565250*
Y644974*
D02*
D29*
X14000Y72750D03*
X19000Y67750D03*
X22750Y729000D03*
X24000Y62750D03*
X29000Y57750D03*
Y687750D03*
Y717750D03*
X31500Y729000D03*
X34000Y96500D03*
X39000Y106500D03*
Y186500D03*
Y305250D03*
Y506500D03*
Y585250D03*
X39354Y387750D03*
X44000Y156212D03*
Y240250D03*
Y354962D03*
Y439000D03*
Y555739D03*
Y637750D03*
X49000Y57750D03*
Y561500D03*
Y644000D03*
Y671500D03*
X49354Y249000D03*
Y361500D03*
Y446500D03*
X49414Y161514D03*
X52750Y101500D03*
Y116500D03*
X54000Y167750D03*
Y254000D03*
Y368656D03*
Y452750D03*
Y567750D03*
Y649000D03*
Y677750D03*
X55250Y707750D03*
X59000Y62750D03*
Y574000D03*
Y661500D03*
Y682750D03*
X59354Y259000D03*
Y374000D03*
Y457750D03*
X59414Y174014D03*
X62750Y114000D03*
Y740250D03*
X64000Y56500D03*
Y379000D03*
Y580250D03*
Y666500D03*
X64354Y264000D03*
Y465250D03*
X64414Y180264D03*
X66500Y62750D03*
X69000Y656500D03*
X70250Y590250D03*
Y711500D03*
X71500Y735250D03*
X74000Y85250D03*
X75250Y67750D03*
X77750Y671500D03*
X81500Y735250D03*
X84000Y69000D03*
X89000Y704000D03*
X91500Y672750D03*
X99000Y56500D03*
Y710250D03*
X99896Y106500D03*
Y186500D03*
Y305250D03*
Y506500D03*
Y585250D03*
X100250Y387750D03*
X102750Y735250D03*
X103724Y175526D03*
X105250Y574276D03*
X106500Y654000D03*
X111500Y730250D03*
X114000Y111500D03*
Y511500D03*
Y590250D03*
X114354Y191500D03*
Y311500D03*
Y392750D03*
X119000Y56500D03*
Y96500D03*
Y116500D03*
Y516500D03*
Y595250D03*
X119354Y196500D03*
Y316500D03*
Y397750D03*
X121500Y677750D03*
Y717750D03*
X124000Y32750D03*
Y121500D03*
Y521500D03*
Y600250D03*
Y660250D03*
X124354Y201500D03*
Y321500D03*
Y402750D03*
X129000Y129000D03*
Y526500D03*
Y605250D03*
X129354Y206500D03*
Y326500D03*
Y407750D03*
X134000Y681500D03*
X135250Y710250D03*
X135594Y454000D03*
X136844Y175526D03*
Y374276D03*
Y574276D03*
Y654000D03*
X140250Y740250D03*
X149000Y62750D03*
Y72750D03*
X160250Y80250D03*
Y156500D03*
X161500Y177750D03*
Y220250D03*
Y259000D03*
X167750Y79000D03*
X169000Y101500D03*
D02*
D72*
X14000Y72750D02*
Y721500D01*
X21500Y729000*
X22750*
X19000Y67750D02*
Y716500D01*
X31500Y729000*
X22750Y744000D02*
Y741500D01*
X26500Y737750*
X44000*
X24000Y62750D02*
Y712750D01*
X29000Y717750*
Y47406D02*
X36156D01*
X39000Y50250*
X29000Y57750D02*
Y687750D01*
X34000Y96500D02*
Y719000D01*
Y724000*
X44000Y734000*
Y737750*
X39000Y585250D02*
Y106500D01*
X41500Y36500D02*
Y42750D01*
X44000Y45250*
Y85250*
X39000Y90250*
X44000Y240250D02*
Y156212D01*
Y354962D02*
Y240250D01*
Y439000D02*
Y354962D01*
Y637750D02*
Y439000D01*
Y737750D02*
X60250D01*
X62750Y740250*
X49000Y50250D02*
Y57750D01*
Y561500D02*
Y446854D01*
X49354Y446500*
X49000Y644000D02*
Y561500D01*
Y671500D02*
Y644000D01*
X49354Y249000D02*
Y161574D01*
X49414Y161514*
X49354Y361500D02*
Y249000D01*
Y446500D02*
Y361500D01*
X50382Y724805D02*
Y719132D01*
X39000Y707750*
Y585250*
X51500Y36500D02*
Y42750D01*
X54000Y45250*
Y85250*
X49000Y90250*
X52750Y116500D02*
Y101500D01*
X54000Y254000D02*
Y167750D01*
Y368656D02*
Y254000D01*
Y452750D02*
Y368656D01*
Y649000D02*
Y452750D01*
Y677750D02*
Y649000D01*
X55250Y707750D02*
Y687750D01*
X44000Y676500*
Y637750*
X59000Y50250D02*
Y62750D01*
Y574000D02*
Y458104D01*
X59354Y457750*
X59000Y661500D02*
Y574000D01*
Y682750D02*
Y661500D01*
X59354Y259000D02*
Y174074D01*
X59414Y174014*
X59354Y374000D02*
Y259000D01*
Y457750D02*
Y374000D01*
X61382Y724805D02*
Y702868D01*
X66500Y697750*
Y680250*
X64000Y677750*
Y666500*
X61500Y36500D02*
Y42750D01*
X64000Y45250*
Y56500*
X61500Y36500D02*
Y34000D01*
X56500Y29000*
X29000*
Y35594*
X62750Y114000D02*
Y111500D01*
X74000Y100250*
Y85250*
X64000Y379000D02*
Y264354D01*
X64354Y264000*
X64000Y580250D02*
Y379000D01*
Y666500D02*
Y580250D01*
X64354Y264000D02*
Y180324D01*
X64414Y180264*
X69000Y50250D02*
Y57750D01*
X75250Y64000*
Y67750*
X71500Y735250D02*
Y732750D01*
X67750Y729000*
Y715250*
X64000Y711500*
Y705250*
X71500Y697750*
Y694687*
X72382Y693805*
X71500Y745250D02*
X65250D01*
X60250Y750250*
X39000*
X32750Y744000*
X72382Y724805D02*
Y713632D01*
X70250Y711500*
X79000Y50250D02*
Y57750D01*
X84000Y62750*
Y69000*
X81500Y735250D02*
X71500Y745250D01*
X83382Y724805D02*
Y720882D01*
X77750Y715250*
Y671500*
X89000Y30250D02*
Y29000D01*
X86500Y26500*
X24000*
X16500Y34000*
X89000Y30250D02*
Y50250D01*
Y704000D02*
Y675250D01*
X91500Y672750*
X94000Y20250D02*
X20250D01*
X16500Y24000*
X94382Y693805D02*
Y698132D01*
X99000Y702750*
Y710250*
Y50250D02*
Y56500D01*
X99896Y106500D02*
Y135112D01*
X99778Y135230*
X99896Y186500D02*
Y219088D01*
Y305250D02*
Y334049D01*
Y506500D02*
Y532681D01*
X99778Y532799*
X99896Y617513D02*
Y585250D01*
X100250Y387750D02*
Y417553D01*
X99896Y417907*
X103724Y175526D02*
X100250Y179000D01*
X76500*
X57750Y160250*
Y107750*
X64000Y101500*
Y71500*
X66500Y69000*
Y62750*
X105250Y574276D02*
X94974D01*
X85250Y584000*
X76500*
X70250Y590250*
X105382Y724805D02*
Y701632D01*
X100250Y696500*
Y669000*
X114000Y655250*
Y590250*
X106500Y654000D02*
X97750Y662750D01*
X75250*
X69000Y656500*
X111500Y730250D02*
Y704000D01*
X107750Y700250*
Y696173*
X105382Y693805*
X114000Y590250D02*
Y111500D01*
X116382Y724805D02*
Y703882D01*
X111500Y699000*
Y664000*
X119000Y656500*
Y595250*
Y90250D02*
Y56500D01*
Y90250D02*
Y96500D01*
Y595250D02*
Y116500D01*
X121500Y717750D02*
Y698923D01*
X116382Y693805*
X124000Y32750D02*
X106500D01*
X94000Y20250*
X124000Y600250D02*
Y121500D01*
Y660250D02*
Y600250D01*
X127382Y724805D02*
Y699882D01*
X121500Y694000*
Y677750*
X129000Y605250D02*
Y129000D01*
X134000Y681500D02*
Y661500D01*
X129000Y656500*
Y605250*
X135250Y710250D02*
Y711500D01*
X149000Y725250*
X135594Y454000D02*
X136844Y175526*
Y255526*
Y259344D01*
X141500Y264000*
X156500*
X161500Y259000*
X136844Y374276D02*
Y574276*
Y654000*
X138419Y138990*
Y146451D01*
X136844Y148026*
X138419Y218016D02*
Y226451D01*
X136844Y228026*
X138419Y336490D02*
Y345201D01*
X136844Y346776*
X138419Y416766D02*
Y425201D01*
X136844Y426776*
X138419Y536766D02*
Y545201D01*
X136844Y546776*
X138419Y616490D02*
Y624925D01*
X136844Y626500*
X140250Y740250D02*
Y734000D01*
X149000Y725250*
X146490Y246500D02*
Y253360D01*
X148656Y255526*
X146490Y565250D02*
Y572110D01*
X148656Y574276*
X146490Y644974D02*
Y651835D01*
X148656Y654000*
X147406Y454000D02*
Y446165D01*
X146490Y445250*
X148656Y148026D02*
Y150870D01*
X142750Y156776*
X148656Y175526D02*
Y168390D01*
X146490Y166224*
X148656Y228026D02*
Y231146D01*
X142750Y237051*
X148656Y346776D02*
Y349620D01*
X142750Y355526*
X148656Y374276D02*
Y367140D01*
X146490Y364974*
X148656Y426776D02*
Y429896D01*
X142750Y435801*
X148656Y546776D02*
Y549896D01*
X142750Y555801*
X148656Y626500D02*
Y629620D01*
X142750Y635526*
X149000Y50250D02*
Y62750D01*
Y90250D02*
Y72750D01*
X160250Y80250D02*
Y89000D01*
X159000Y90250*
X160250Y156500D02*
Y104000D01*
X154000Y97750*
Y54000*
X157750Y50250*
X159000*
X161500Y220250D02*
Y177750D01*
X167750Y79000D02*
Y51500D01*
X169000Y50250*
Y101500D02*
Y90250D01*
X169439Y729738D02*
Y730250D01*
X159000*
X140988Y748262*
X115762*
X102750Y735250*
X169439Y739974D02*
X160526D01*
X152750Y747750*
D02*
D86*
X149000Y685250D03*
Y695250D03*
Y705250D03*
Y715250D03*
Y725250D03*
D02*
D87*
X138419Y131510D03*
Y138990D03*
Y210535D03*
Y218016D03*
Y329010D03*
Y336490D03*
Y409285D03*
Y416766D03*
Y529285D03*
Y536766D03*
Y609010D03*
Y616490D03*
X147081Y135250D03*
Y214276D03*
Y332750D03*
Y413026D03*
Y533026D03*
Y612750D03*
D02*
D88*
X139010Y166224D03*
Y246500D03*
Y364974D03*
Y445250D03*
Y565250D03*
Y644974D03*
X142750Y156776D03*
Y237051D03*
Y355526D03*
Y435801D03*
Y555801D03*
Y635526D03*
X146490Y166224D03*
Y246500D03*
Y364974D03*
Y445250D03*
Y565250D03*
Y644974D03*
D02*
D89*
X135594Y454000D03*
X136844Y148026D03*
Y175526D03*
Y228026D03*
Y255526D03*
Y346776D03*
Y374276D03*
Y426776D03*
Y546776D03*
Y574276D03*
Y626500D03*
Y654000D03*
X147406Y454000D03*
X148656Y148026D03*
Y175526D03*
Y228026D03*
Y255526D03*
Y346776D03*
Y374276D03*
Y426776D03*
Y546776D03*
Y574276D03*
Y626500D03*
Y654000D03*
D02*
D90*
X136844Y120526D03*
Y200526D03*
Y319276D03*
Y399000D03*
Y519276D03*
Y599000D03*
X148656Y120526D03*
Y200526D03*
Y319276D03*
Y399000D03*
Y519276D03*
Y599000D03*
D02*
D91*
X169439Y729738D03*
Y732297D03*
Y734856D03*
Y737415D03*
Y739974D03*
D02*
D92*
X167864Y725014D03*
Y744699D03*
D02*
D93*
X179675Y726293D03*
Y743419D03*
D02*
D94*
X149738Y29000D03*
Y41500D03*
X160762Y29000D03*
Y41500D03*
D02*
D95*
X29000Y35594D03*
Y47406D03*
X0Y0D02*
M02*
